<?xml version="1.0" encoding="UTF-8"?>
<svg version="1.1" xmlns="http://www.w3.org/2000/svg" width="64" height="64">
<path d="M0 0 C21.12 0 42.24 0 64 0 C64.061875 7.033125 64.12375 14.06625 64.1875 21.3125 C64.22846802 24.6388855 64.22846802 24.6388855 64.27026367 28.0324707 C64.27902482 29.78856867 64.28666964 31.54467272 64.29296875 33.30078125 C64.3159906 34.6704303 64.3159906 34.6704303 64.33947754 36.06774902 C64.34002136 37.37673157 64.34002136 37.37673157 64.34057617 38.7121582 C64.35056892 39.84800102 64.35056892 39.84800102 64.36076355 41.00679016 C64 43 64 43 62.82978821 44.74372864 C60.28042179 46.49403832 58.46296341 46.38093812 55.3828125 46.38818359 C54.23151855 46.39764008 53.08022461 46.40709656 51.89404297 46.4168396 C50.65025879 46.41076691 49.40647461 46.40469421 48.125 46.3984375 C46.84898926 46.40130768 45.57297852 46.40417786 44.25830078 46.40713501 C41.55795884 46.40917835 38.85842919 46.40513392 36.15820312 46.39111328 C32.6978077 46.37402089 29.23811029 46.38386307 25.77774048 46.40183067 C22.47680194 46.41528016 19.17594764 46.40586244 15.875 46.3984375 C14.00932373 46.40754654 14.00932373 46.40754654 12.10595703 46.4168396 C10.37901611 46.40265488 10.37901611 46.40265488 8.6171875 46.38818359 C7.60253418 46.38579681 6.58788086 46.38341003 5.54248047 46.38095093 C3 46 3 46 1.17021179 44.74372864 C-0.29089619 42.56653657 -0.36354774 41.32325958 -0.34057617 38.7121582 C-0.34021362 37.83950317 -0.33985107 36.96684814 -0.33947754 36.06774902 C-0.32412964 35.15464966 -0.30878174 34.24155029 -0.29296875 33.30078125 C-0.28994751 32.45849976 -0.28692627 31.61621826 -0.28381348 30.74841309 C-0.26812097 27.60298403 -0.22623689 24.45772967 -0.1875 21.3125 C-0.125625 14.279375 -0.06375 7.24625 0 0 Z " fill="#F7F7F7" transform="translate(0,18)"/>
<path d="M0 0 C1.15129395 -0.00945648 2.30258789 -0.01891296 3.48876953 -0.02865601 C5.3544458 -0.01954697 5.3544458 -0.01954697 7.2578125 -0.01025391 C9.17182861 -0.01455917 9.17182861 -0.01455917 11.12451172 -0.01895142 C13.82485366 -0.02099475 16.52438331 -0.01695032 19.22460938 -0.00292969 C22.6850048 0.0141627 26.14470221 0.00432052 29.60507202 -0.01364708 C32.90601056 -0.02709657 36.20686486 -0.01767885 39.5078125 -0.01025391 C40.75159668 -0.0163266 41.99538086 -0.02239929 43.27685547 -0.02865601 C45.00379639 -0.01447128 45.00379639 -0.01447128 46.765625 0 C47.78027832 0.00238678 48.79493164 0.00477356 49.84033203 0.00723267 C52.3828125 0.38818359 52.3828125 0.38818359 55.3828125 3.38818359 C55.3828125 7.67818359 55.3828125 11.96818359 55.3828125 16.38818359 C34.2628125 16.38818359 13.1428125 16.38818359 -8.6171875 16.38818359 C-8.6171875 12.09818359 -8.6171875 7.80818359 -8.6171875 3.38818359 C-5.15414562 -0.07485829 -4.64881432 0.01093546 0 0 Z M30.3828125 7.38818359 C30.3828125 8.04818359 30.3828125 8.70818359 30.3828125 9.38818359 C35.3328125 9.38818359 40.2828125 9.38818359 45.3828125 9.38818359 C45.3828125 8.72818359 45.3828125 8.06818359 45.3828125 7.38818359 C40.4328125 7.38818359 35.4828125 7.38818359 30.3828125 7.38818359 Z " fill="#F5F5F5" transform="translate(8.6171875,-0.38818359375)"/>
<path d="M0 0 C4.29 0 8.58 0 13 0 C13.02682299 4.31254083 13.04675244 8.62491707 13.0625 12.9375 C13.07087891 14.16919922 13.07925781 15.40089844 13.08789062 16.66992188 C13.09111328 17.83974609 13.09433594 19.00957031 13.09765625 20.21484375 C13.10289307 21.29886475 13.10812988 22.38288574 13.11352539 23.49975586 C13 26 13 26 12 27 C8.04 27 4.08 27 0 27 C0 18.09 0 9.18 0 0 Z " fill="#060606" transform="translate(14,28)"/>
<path d="M0 0 C1.32 0 2.64 0 4 0 C4 9.24 4 18.48 4 28 C2.35 28 0.7 28 -1 28 C-1.22666276 24.27171115 -1.42809699 20.54246959 -1.625 16.8125 C-1.68945312 15.75740234 -1.75390625 14.70230469 -1.8203125 13.61523438 C-1.871875 12.59365234 -1.9234375 11.57207031 -1.9765625 10.51953125 C-2.05511475 9.11344604 -2.05511475 9.11344604 -2.13525391 7.67895508 C-1.98672793 4.73712195 -1.23448557 2.65646126 0 0 Z " fill="#262626" transform="translate(48,27)"/>
<path d="M0 0 C1.32 0 2.64 0 4 0 C2.31699545 6.5236462 0.03169827 12.80251449 -2.4375 19.0625 C-2.72568604 19.8248999 -3.01387207 20.5872998 -3.31079102 21.37280273 C-4.18359375 23.53515625 -4.18359375 23.53515625 -6 27 C-8.11352539 27.71655273 -8.11352539 27.71655273 -10 28 C-9.43116017 23.9158873 -8.52141737 20.40339371 -6.93359375 16.6015625 C-6.53076172 15.62832031 -6.12792969 14.65507813 -5.71289062 13.65234375 C-5.29201172 12.65332031 -4.87113281 11.65429688 -4.4375 10.625 C-4.01275391 9.60277344 -3.58800781 8.58054687 -3.15039062 7.52734375 C-2.10587881 5.01582095 -1.05560951 2.50687381 0 0 Z " fill="#161616" transform="translate(40,27)"/>
<path d="M0 0 C1.65 0 3.3 0 5 0 C5 6.6 5 13.2 5 20 C3.35 20 1.7 20 0 20 C0 13.4 0 6.8 0 0 Z " fill="#FFFFFF" transform="translate(18,31)"/>
</svg>
